# Blender v2.82 (sub 7) OBJ File: 'Tree.blend'
# www.blender.org
mtllib Tree.mtl
o Cylinder
v 1.650218 -52.673931 -8.296206
v 0.326966 52.614540 -8.544279
v 3.872668 -52.673931 -7.561289
v 4.135445 52.614422 -7.420831
v 6.471457 -52.673931 -5.503715
v 5.981231 52.614422 -5.981231
v 7.814855 -52.673931 -3.237019
v 7.561288 52.614422 -3.872668
v 8.438520 -52.673931 -0.980822
v 8.467726 52.614422 -0.684297
v 8.171521 -52.673931 2.323117
v 8.085028 52.614422 2.608247
v 7.033184 -52.673931 4.699423
v 5.503715 -52.673931 6.471457
v 6.471457 52.614422 5.503715
v 3.237018 -52.673931 7.814856
v 3.872664 52.614422 7.561290
v 0.980820 -52.673931 8.438520
v 0.684294 52.614422 8.467726
v -1.650221 -52.673931 8.296206
v -1.650221 52.614422 8.296206
v -3.872672 -52.673931 7.561286
v -4.135449 52.614422 7.420829
v -6.471461 -52.673931 5.503711
v -6.660484 52.614422 5.273385
v -8.085029 -52.673931 2.608246
v -8.171521 52.614422 2.323115
v -8.467725 -52.673931 -0.684307
v -8.438519 52.614422 -0.980831
v -7.814851 -52.673931 -3.237028
v -7.814851 52.614422 -3.237028
v -6.660475 -52.673931 -5.273396
v -6.471450 52.614422 -5.503723
v -4.135434 -52.673931 -7.420838
v -3.812883 52.614891 -7.595691
v -0.892277 -52.673172 -8.459580
v 12.334470 9.579767 -40.661209
v 26.956865 9.576189 -32.847023
v 37.472584 9.582550 -20.029484
v 41.481026 9.571417 -8.251090
v 42.285107 9.582550 4.164697
v 39.074272 9.571417 16.185087
v 32.845875 9.579767 26.955919
v 20.030342 9.578097 37.474228
v 8.251080 9.571417 41.481026
v -4.164711 9.582550 42.285103
v -20.030615 9.576983 37.474606
v -32.845882 9.579767 26.955914
v -40.662884 9.575592 12.334931
v 0.000000 111.850327 0.000000
v -42.285103 9.582550 -4.164746
v -39.074253 9.571417 -16.185137
v -32.846745 9.576983 -26.956690
v -20.029455 9.582550 -37.472603
v -4.164944 9.575592 -42.287983
v 9.867609 39.288994 -32.529160
v 21.565416 39.286400 -26.277508
v 29.978287 39.291580 -16.023726
v 33.184822 39.281219 -6.600873
v 33.828342 39.291580 3.331796
v 29.979809 39.286400 16.024538
v 23.924923 39.281219 23.924923
v 16.023716 39.291580 29.978296
v 6.600863 39.281219 33.184822
v -3.331812 39.291580 33.828342
v -16.024685 39.285660 29.980009
v -26.276861 39.288994 21.564850
v -32.530403 39.285107 9.867968
v 0.000000 141.560120 0.000000
v -33.828339 39.291580 -3.331831
v -29.979485 39.287437 -16.024414
v -23.924892 39.281219 -23.924953
v -16.023678 39.291580 -29.978317
v -3.332016 39.283813 -33.830914
v 8.634205 59.991539 -28.463133
v 16.447979 59.984200 -24.616138
v 22.991791 59.993980 -18.868879
v 28.464153 59.987869 -8.634516
v 29.599966 59.993980 2.915337
v 26.232153 59.990070 14.021374
v 20.934305 59.984200 20.934305
v 14.020838 59.993980 26.231150
v 5.775755 59.984200 29.036718
v -2.915454 59.990070 29.601095
v -14.021385 59.990070 26.232147
v -22.992355 59.991535 18.869314
v -28.464363 59.987133 8.634559
v 0.000000 162.263107 0.000000
v -29.599960 59.993980 -2.915374
v -26.232132 59.990070 -14.021416
v -20.934280 59.984200 -20.934332
v -14.020813 59.993980 -26.231165
v -2.915501 59.987461 -29.601854
vt 0.986611 1.000000
vt 0.968750 0.500000
vt 1.000000 0.500000
vt 0.924683 0.500000
vt 0.919067 1.000000
vt 0.862183 0.500000
vt 0.825317 1.000000
vt 0.812500 0.500000
vt 0.768433 0.500000
vt 0.762817 1.000000
vt 0.705933 0.500000
vt 0.700317 1.000000
vt 0.656250 0.500000
vt 0.637817 1.000000
vt 0.612183 0.500000
vt 0.575317 1.000000
vt 0.562500 0.500000
vt 0.518433 0.500000
vt 0.512817 1.000000
vt 0.468750 0.500000
vt 0.468750 1.000000
vt 0.424683 0.500000
vt 0.419067 1.000000
vt 0.362183 0.500000
vt 0.356567 1.000000
vt 0.299683 0.500000
vt 0.294067 1.000000
vt 0.237183 0.500000
vt 0.231567 1.000000
vt 0.187500 0.500000
vt 0.187500 1.000000
vt 0.143433 0.500000
vt 0.137817 1.000000
vt 0.080933 0.500000
vt 0.028269 0.341844
vt 0.133682 0.041351
vt 0.477333 0.176622
vt 0.074018 1.000000
vt 0.016733 0.500000
vt 0.987280 0.771758
vt 0.777617 0.506861
vt 0.522667 0.670763
vt 0.226590 0.487694
vt 0.250000 0.250000
vt 0.319333 0.478560
vt 0.401521 0.434629
vt 0.460642 0.362590
vt 0.485388 0.296822
vt 0.487694 0.226589
vt 0.471731 0.158156
vt 0.434629 0.098479
vt 0.362590 0.039358
vt 0.296822 0.014612
vt 0.226589 0.012306
vt 0.137409 0.039358
vt 0.065371 0.098479
vt 0.021440 0.180667
vt 0.012306 0.273411
vt 0.028269 0.341844
vt 0.065371 0.401521
vt 0.137410 0.460642
vt 0.565371 0.401521
vt 0.726590 0.487694
vt 0.796822 0.014612
vt 0.226589 0.487694
vt 0.250000 0.250000
vt 0.319333 0.478560
vt 0.401521 0.434629
vt 0.460642 0.362590
vt 0.485388 0.296822
vt 0.487694 0.226589
vt 0.460642 0.137410
vt 0.419706 0.080294
vt 0.362590 0.039358
vt 0.296822 0.014612
vt 0.226589 0.012306
vt 0.137409 0.039358
vt 0.065371 0.098479
vt 0.021440 0.180667
vt 0.012306 0.273411
vt 0.039358 0.362591
vt 0.080295 0.419706
vt 0.137410 0.460642
vt 0.521440 0.180667
vt 0.539358 0.362591
vt 0.726589 0.487694
vt 0.226589 0.487694
vt 0.250000 0.250000
vt 0.319333 0.478560
vt 0.383337 0.449553
vt 0.434629 0.401521
vt 0.478560 0.319333
vt 0.487694 0.226589
vt 0.460642 0.137410
vt 0.419706 0.080294
vt 0.362590 0.039358
vt 0.296822 0.014612
vt 0.226589 0.012306
vt 0.137409 0.039358
vt 0.065371 0.098479
vt 0.021440 0.180667
vt 0.012306 0.273411
vt 0.039358 0.362591
vt 0.080295 0.419706
vt 0.137410 0.460642
vt 0.796822 0.014612
vt 0.521440 0.180667
vt 0.726589 0.487694
vt 0.875000 1.000000
vt 0.259085 0.486943
vt 0.142863 0.463557
vt 0.366318 0.458649
vt 0.012720 0.277618
vt 0.020213 0.184712
vt 0.062689 0.101746
vt 0.203178 0.014612
vt 0.269204 0.011891
vt 0.488109 0.269204
vt 0.462634 0.358863
vt 0.068053 0.404789
vt 0.358862 0.037365
vt 0.431948 0.095211
vt 0.419706 0.419706
vt 0.012817 1.000000
vt 0.931948 0.898929
vt 0.971731 0.835985
vt 0.858863 0.956775
vt 0.979787 0.678853
vt 0.949553 0.610804
vt 0.904789 0.562193
vt 0.841844 0.522409
vt 0.511891 0.763345
vt 0.528269 0.835985
vt 0.562689 0.892394
vt 0.633682 0.952790
vt 0.724929 0.981671
vt 0.796822 0.979529
vt 0.703178 0.508752
vt 0.641137 0.531506
vt 0.568052 0.589352
vt 0.901521 0.434629
vt 0.960642 0.362590
vt 0.985388 0.296822
vt 0.987694 0.226589
vt 0.971731 0.158156
vt 0.934629 0.098479
vt 0.726589 0.012306
vt 0.637409 0.039358
vt 0.512306 0.273411
vt 0.528269 0.341844
vt 0.521440 0.180667
vt 0.637410 0.460642
vt 0.819333 0.478560
vt 0.862590 0.039358
vt 0.565371 0.098479
vt 0.901521 0.434629
vt 0.960642 0.362590
vt 0.985388 0.296822
vt 0.987694 0.226589
vt 0.960642 0.137410
vt 0.919706 0.080294
vt 0.796822 0.014612
vt 0.862590 0.039358
vt 0.726589 0.012306
vt 0.637409 0.039358
vt 0.512306 0.273411
vt 0.580295 0.419706
vt 0.637410 0.460642
vt 0.819333 0.478560
vt 0.565371 0.098479
vt 0.934629 0.401521
vt 0.978560 0.319333
vt 0.883337 0.449553
vt 0.987694 0.226589
vt 0.960642 0.137410
vt 0.919706 0.080294
vt 0.862590 0.039358
vt 0.512306 0.273411
vt 0.539358 0.362591
vt 0.580295 0.419706
vt 0.637410 0.460642
vt 0.819333 0.478560
vt 0.726589 0.012306
vt 0.637410 0.039358
vt 0.565371 0.098479
vn 0.0236 0.6547 -0.7555
vn 0.1404 -0.6800 -0.7197
vn -0.0914 -0.6679 -0.7386
vn 0.3519 -0.6698 -0.6539
vn 0.3406 0.6673 -0.6623
vn 0.5599 -0.6686 -0.4893
vn 0.6663 0.6686 -0.3300
vn 0.6760 -0.6785 -0.2872
vn 0.7391 -0.6699 -0.0703
vn 0.7436 0.6659 -0.0601
vn 0.7180 -0.6685 0.1939
vn 0.7100 0.6660 0.2289
vn 0.6146 -0.6787 0.4020
vn 0.5682 0.6662 0.4830
vn 0.4747 -0.6729 0.5672
vn 0.3398 0.6661 0.6640
vn 0.2872 -0.6785 0.6760
vn 0.0799 -0.6725 0.7357
vn 0.0753 0.6700 0.7385
vn -0.1364 -0.6786 0.7217
vn -0.1501 0.6786 0.7190
vn -0.3522 -0.6700 0.6535
vn -0.3706 0.6685 0.6448
vn -0.5683 -0.6659 0.4833
vn -0.5849 0.6659 0.4631
vn -0.7100 -0.6659 0.2290
vn -0.7176 0.6659 0.2040
vn -0.7420 -0.6685 -0.0501
vn -0.7390 0.6700 -0.0702
vn -0.6812 -0.6786 -0.2746
vn -0.6759 0.6786 -0.2875
vn -0.5721 -0.6700 -0.4729
vn -0.5596 0.6682 -0.4902
vn -0.3624 -0.6659 -0.6520
vn -0.3237 0.6615 -0.6764
vn -0.0842 -0.5120 -0.8548
vn -0.0002 1.0000 -0.0002
vn 0.2494 -0.5115 -0.8222
vn 0.5449 -0.5120 -0.6640
vn 0.7500 -0.5138 -0.4165
vn 0.8341 -0.5260 -0.1660
vn 0.8523 -0.5163 0.0839
vn 0.7852 -0.5266 0.3256
vn 0.6538 -0.5151 0.5542
vn 0.4163 -0.5150 0.7493
vn 0.1659 -0.5260 0.8341
vn -0.0978 -0.5138 0.8523
vn -0.4050 -0.5119 0.7576
vn -0.6641 -0.5116 0.5451
vn -0.8220 -0.5120 0.2493
vn -0.8550 -0.5137 -0.0703
vn -0.7854 -0.5265 -0.3255
vn -0.6537 -0.5153 -0.5542
vn -0.4052 -0.5112 -0.7579
vn -0.0824 -0.5416 -0.8366
vn -0.0002 1.0000 -0.0001
vn 0.2442 -0.5409 -0.8048
vn 0.5333 -0.5414 -0.6499
vn 0.7339 -0.5432 -0.4078
vn 0.8154 -0.5557 -0.1621
vn 0.8341 -0.5432 0.0959
vn 0.7458 -0.5448 0.3833
vn 0.5878 -0.5560 0.5875
vn 0.3950 -0.5456 0.7391
vn 0.1621 -0.5556 0.8155
vn -0.0959 -0.5431 0.8341
vn -0.3963 -0.5415 0.7414
vn -0.6501 -0.5410 0.5335
vn -0.8044 -0.5416 0.2440
vn -0.8371 -0.5407 -0.0825
vn -0.7458 -0.5448 -0.3833
vn -0.5878 -0.5562 -0.5875
vn -0.3838 -0.5430 -0.7469
vn -0.0815 -0.5567 -0.8267
vn -0.0001 1.0000 -0.0000
vn 0.2278 -0.5587 -0.7974
vn 0.4562 -0.5708 -0.6827
vn 0.6499 -0.5582 -0.5158
vn 0.7950 -0.5567 -0.2410
vn 0.8273 -0.5558 0.0815
vn 0.7369 -0.5599 0.3787
vn 0.5805 -0.5714 0.5801
vn 0.3903 -0.5606 0.7303
vn 0.1601 -0.5708 0.8053
vn -0.0948 -0.5597 0.8232
vn -0.3916 -0.5567 0.7326
vn -0.6423 -0.5562 0.5273
vn -0.7949 -0.5567 0.2411
vn -0.8273 -0.5557 -0.0815
vn -0.7369 -0.5600 -0.3787
vn -0.5804 -0.5714 -0.5801
vn -0.3791 -0.5581 -0.7380
vn 0.5241 0.6785 -0.5146
usemtl Material.001
s 1
f 2/1/1 1/2/2 36/3/3
f 2/1/1 3/4/4 1/2/2
f 4/5/5 5/6/6 3/4/4
f 8/7/7 7/8/8 5/6/6
f 8/7/7 9/9/9 7/8/8
f 10/10/10 11/11/11 9/9/9
f 12/12/12 13/13/13 11/11/11
f 15/14/14 14/15/15 13/13/13
f 17/16/16 16/17/17 14/15/15
f 17/16/16 18/18/18 16/17/17
f 19/19/19 20/20/20 18/18/18
f 21/21/21 22/22/22 20/20/20
f 23/23/23 24/24/24 22/22/22
f 25/25/25 26/26/26 24/24/24
f 27/27/27 28/28/28 26/26/26
f 29/29/29 30/30/30 28/28/28
f 31/31/31 32/32/32 30/30/30
f 33/33/33 34/34/34 32/32/32
f 31/35/31 23/36/23 12/37/12
f 35/38/35 36/39/3 34/34/34
f 9/40/9 18/41/18 26/42/26
f 55/43/36 50/44/37 37/45/38
f 37/45/38 50/44/37 38/46/39
f 38/46/39 50/44/37 39/47/40
f 39/47/40 50/44/37 40/48/41
f 40/48/41 50/44/37 41/49/42
f 41/49/42 50/44/37 42/50/43
f 42/50/43 50/44/37 43/51/44
f 43/51/44 50/44/37 44/52/45
f 44/52/45 50/44/37 45/53/46
f 45/53/46 50/44/37 46/54/47
f 46/54/47 50/44/37 47/55/48
f 47/55/48 50/44/37 48/56/49
f 48/56/49 50/44/37 49/57/50
f 49/57/50 50/44/37 51/58/51
f 51/58/51 50/44/37 52/59/52
f 52/59/52 50/44/37 53/60/53
f 53/60/53 50/44/37 54/61/54
f 54/61/54 50/44/37 55/43/36
f 53/62/53 55/63/36 45/64/46
f 74/65/55 69/66/56 56/67/57
f 56/67/57 69/66/56 57/68/58
f 57/68/58 69/66/56 58/69/59
f 58/69/59 69/66/56 59/70/60
f 59/70/60 69/66/56 60/71/61
f 60/71/61 69/66/56 61/72/62
f 61/72/62 69/66/56 62/73/63
f 62/73/63 69/66/56 63/74/64
f 63/74/64 69/66/56 64/75/65
f 64/75/65 69/66/56 65/76/66
f 65/76/66 69/66/56 66/77/67
f 66/77/67 69/66/56 67/78/68
f 67/78/68 69/66/56 68/79/69
f 68/79/69 69/66/56 70/80/70
f 70/80/70 69/66/56 71/81/71
f 71/81/71 69/66/56 72/82/72
f 72/82/72 69/66/56 73/83/73
f 73/83/73 69/66/56 74/65/55
f 68/84/69 71/85/71 74/86/55
f 93/87/74 88/88/75 75/89/76
f 75/89/76 88/88/75 76/90/77
f 76/90/77 88/88/75 77/91/78
f 77/91/78 88/88/75 78/92/79
f 78/92/79 88/88/75 79/93/80
f 79/93/80 88/88/75 80/94/81
f 80/94/81 88/88/75 81/95/82
f 81/95/82 88/88/75 82/96/83
f 82/96/83 88/88/75 83/97/84
f 83/97/84 88/88/75 84/98/85
f 84/98/85 88/88/75 85/99/86
f 85/99/86 88/88/75 86/100/87
f 86/100/87 88/88/75 87/101/88
f 87/101/88 88/88/75 89/102/89
f 89/102/89 88/88/75 90/103/90
f 90/103/90 88/88/75 91/104/91
f 91/104/91 88/88/75 92/105/92
f 92/105/92 88/88/75 93/87/74
f 83/106/84 87/107/88 93/108/74
f 2/1/1 4/5/5 3/4/4
f 4/5/5 6/109/93 5/6/6
f 6/109/93 8/7/7 5/6/6
f 8/7/7 10/10/10 9/9/9
f 10/10/10 12/12/12 11/11/11
f 12/12/12 15/14/14 13/13/13
f 15/14/14 17/16/16 14/15/15
f 17/16/16 19/19/19 18/18/18
f 19/19/19 21/21/21 20/20/20
f 21/21/21 23/23/23 22/22/22
f 23/23/23 25/25/25 24/24/24
f 25/25/25 27/27/27 26/26/26
f 27/27/27 29/29/29 28/28/28
f 29/29/29 31/31/31 30/30/30
f 31/31/31 33/33/33 32/32/32
f 33/33/33 35/38/35 34/34/34
f 2/110/1 35/111/35 4/112/5
f 29/113/29 27/114/27 31/35/31
f 27/114/27 25/115/25 23/36/23
f 23/36/23 21/116/21 19/117/19
f 10/118/10 8/119/7 12/37/12
f 35/111/35 33/120/33 4/112/5
f 33/120/33 31/35/31 4/112/5
f 23/36/23 19/117/19 12/37/12
f 19/117/19 17/121/16 12/37/12
f 17/121/16 15/122/14 12/37/12
f 8/119/7 6/123/93 12/37/12
f 6/123/93 4/112/5 12/37/12
f 31/35/31 27/114/27 23/36/23
f 4/112/5 31/35/31 12/37/12
f 35/38/35 2/124/1 36/39/3
f 5/125/6 7/126/8 3/127/4
f 7/126/8 9/40/9 3/127/4
f 11/128/11 13/129/13 9/40/9
f 13/129/13 14/130/15 18/41/18
f 14/130/15 16/131/17 18/41/18
f 28/132/28 30/133/30 32/134/32
f 32/134/32 34/135/34 36/136/3
f 36/136/3 1/137/2 3/127/4
f 18/41/18 20/138/20 26/42/26
f 20/138/20 22/139/22 26/42/26
f 22/139/22 24/140/24 26/42/26
f 26/42/26 28/132/28 36/136/3
f 28/132/28 32/134/32 36/136/3
f 36/136/3 3/127/4 9/40/9
f 9/40/9 13/129/13 18/41/18
f 36/136/3 9/40/9 26/42/26
f 38/141/39 39/142/40 40/143/41
f 41/144/42 42/145/43 40/143/41
f 42/145/43 43/146/44 40/143/41
f 46/147/47 47/148/48 45/64/46
f 51/149/51 52/150/52 49/151/50
f 52/150/52 53/62/53 49/151/50
f 53/62/53 54/152/54 55/63/36
f 55/63/36 37/153/38 38/141/39
f 43/146/44 44/154/45 40/143/41
f 44/154/45 45/64/46 40/143/41
f 47/148/48 48/155/49 49/151/50
f 55/63/36 38/141/39 45/64/46
f 38/141/39 40/143/41 45/64/46
f 45/64/46 47/148/48 49/151/50
f 49/151/50 53/62/53 45/64/46
f 57/156/58 58/157/59 59/158/60
f 60/159/61 61/160/62 59/158/60
f 61/160/62 62/161/63 64/162/65
f 62/161/63 63/163/64 64/162/65
f 65/164/66 66/165/67 64/162/65
f 70/166/70 71/85/71 68/84/69
f 71/85/71 72/167/72 74/86/55
f 72/167/72 73/168/73 74/86/55
f 74/86/55 56/169/57 57/156/58
f 66/165/67 67/170/68 68/84/69
f 74/86/55 57/156/58 59/158/60
f 59/158/60 61/160/62 74/86/55
f 61/160/62 64/162/65 74/86/55
f 64/162/65 66/165/67 74/86/55
f 66/165/67 68/84/69 74/86/55
f 77/171/78 78/172/79 76/173/77
f 79/174/80 80/175/81 78/172/79
f 80/175/81 81/176/82 83/106/84
f 81/176/82 82/177/83 83/106/84
f 89/178/89 90/179/90 87/107/88
f 90/179/90 91/180/91 93/108/74
f 91/180/91 92/181/92 93/108/74
f 93/108/74 75/182/76 76/173/77
f 83/106/84 84/183/85 87/107/88
f 84/183/85 85/184/86 87/107/88
f 85/184/86 86/185/87 87/107/88
f 93/108/74 76/173/77 83/106/84
f 76/173/77 78/172/79 83/106/84
f 78/172/79 80/175/81 83/106/84
f 87/107/88 90/179/90 93/108/74
